<?xml version="1.0" encoding="UTF-8"?>
<svg width="86px" height="79px" viewBox="0 0 86 79" version="1.1" xmlns="http://www.w3.org/2000/svg" xmlns:xlink="http://www.w3.org/1999/xlink">
    <!-- Generator: Sketch 52.6 (67491) - http://www.bohemiancoding.com/sketch -->
    <title>10295549801535797982</title>
    <desc>Created with Sketch.</desc>
    <g id="Page-1" stroke="none" stroke-width="1" fill="none" fill-rule="evenodd">
        <g id="Desktop-View-Copy-5" transform="translate(-171.000000, -704.000000)" fill="#FFFFFF">
            <g id="10295549801535797982" transform="translate(171.000000, 704.000000)">
                <path d="M84.764,47.834 C83.388,45.877 80.881,45.194 78.763,45.998 C78.676,45.139 78.393,44.31 77.884,43.585 C76.269,41.276 73.07,40.712 70.792,42.302 L69.947,42.854 C69.842,42.045 69.568,41.264 69.086,40.576 C67.467,38.271 64.269,37.707 61.955,39.322 C61.929,39.34 61.91,39.362 61.886,39.382 C61.876,39.39 61.864,39.391 61.854,39.4 C55.135,45.023 46.932,50.838 44.833,50.838 C43.279,50.838 38.549,48.189 34.75,46.06 C29.906,43.347 25.331,40.784 22.706,40.581 C17.777,40.223 2.733,48.956 1.031,49.955 C0.339,50.361 0.107,51.251 0.513,51.943 C0.919,52.634 1.809,52.867 2.501,52.461 C8.627,48.865 19.445,43.236 22.482,43.48 C24.468,43.633 29.176,46.27 33.329,48.597 C38.808,51.666 42.352,53.56 44.538,53.715 C44.633,53.735 44.732,53.745 44.833,53.745 L54.803,53.745 C56.621,53.745 58.101,55.225 58.101,57.045 C58.101,58.865 56.622,60.347 54.803,60.347 C54.789,60.347 54.776,60.351 54.762,60.351 C54.741,60.352 54.722,60.348 54.701,60.35 C54.603,60.358 44.857,61.036 40.838,60.366 C37.072,59.738 32.259,55.465 32.211,55.422 C31.613,54.885 30.694,54.937 30.16,55.535 C29.625,56.133 29.675,57.051 30.272,57.586 C30.494,57.785 35.759,62.466 40.36,63.233 C41.863,63.483 44.013,63.565 46.201,63.565 C50.349,63.565 54.634,63.268 54.905,63.249 C54.906,63.249 54.907,63.249 54.908,63.249 C58.28,63.192 61.007,60.434 61.007,57.046 C61.007,53.624 58.224,50.84 54.803,50.84 L51.398,50.84 C56.308,47.74 61.968,43.093 63.641,41.695 C64.642,41.013 66.012,41.258 66.706,42.246 C67.045,42.73 67.175,43.318 67.071,43.902 C66.967,44.486 66.645,44.993 66.162,45.332 C66.137,45.35 66.117,45.372 66.093,45.391 C66.044,45.43 65.994,45.468 65.952,45.512 C65.926,45.539 65.905,45.569 65.881,45.597 C65.844,45.642 65.806,45.686 65.775,45.734 C65.754,45.767 65.738,45.802 65.72,45.836 C65.694,45.884 65.667,45.931 65.647,45.982 C65.632,46.02 65.623,46.06 65.611,46.099 C65.596,46.149 65.579,46.197 65.569,46.248 C65.561,46.29 65.559,46.333 65.555,46.375 C65.55,46.425 65.543,46.474 65.543,46.524 C65.543,46.569 65.55,46.614 65.554,46.659 C65.559,46.707 65.561,46.754 65.57,46.801 C65.579,46.849 65.596,46.896 65.611,46.944 C65.624,46.987 65.635,47.03 65.652,47.073 C65.672,47.122 65.7,47.168 65.726,47.215 C65.744,47.248 65.757,47.283 65.778,47.316 C65.782,47.322 65.787,47.327 65.791,47.333 C65.796,47.34 65.798,47.348 65.803,47.354 C65.818,47.375 65.838,47.39 65.853,47.41 C65.902,47.474 65.954,47.533 66.012,47.587 C66.041,47.614 66.071,47.637 66.101,47.661 C66.157,47.704 66.214,47.743 66.274,47.778 C66.308,47.798 66.341,47.817 66.377,47.833 C66.443,47.864 66.512,47.888 66.581,47.908 C66.613,47.917 66.643,47.93 66.675,47.937 C66.775,47.959 66.877,47.972 66.98,47.973 C66.985,47.973 66.989,47.975 66.993,47.975 C67.006,47.975 67.019,47.969 67.032,47.969 C67.143,47.966 67.253,47.948 67.362,47.919 C67.395,47.91 67.428,47.902 67.461,47.891 C67.573,47.852 67.683,47.805 67.787,47.737 L72.416,44.711 C73.42,44.013 74.803,44.255 75.502,45.255 C75.841,45.737 75.972,46.323 75.869,46.904 C75.766,47.488 75.442,47.996 74.957,48.336 L73.471,49.377 C72.814,49.838 72.655,50.744 73.115,51.401 C73.398,51.804 73.848,52.02 74.306,52.02 C74.594,52.02 74.885,51.935 75.139,51.757 L76.601,50.732 L79.296,48.965 C80.298,48.266 81.683,48.508 82.381,49.502 C83.081,50.505 82.835,51.891 81.833,52.59 C81.832,52.591 81.831,52.592 81.829,52.593 C66.058,63.665 48.17,75.138 45.537,75.17 C43.58,75.17 39.256,72.592 35.44,70.318 C31.135,67.752 27.069,65.328 24.197,64.945 C18.463,64.184 9.634,70.829 8.646,71.59 C8.01,72.079 7.892,72.991 8.38,73.627 C8.869,74.264 9.782,74.382 10.418,73.893 C12.839,72.033 19.963,67.311 23.813,67.827 C26.093,68.131 30.268,70.619 33.952,72.815 C38.492,75.521 42.779,78.077 45.536,78.077 C50.343,78.077 78.005,58.829 83.502,54.971 C83.585,54.913 83.659,54.848 83.726,54.777 C85.835,53.111 86.324,50.072 84.764,47.834 Z" id="Path"></path>
                <path d="M33.425,21.144 C39.252,21.144 43.992,16.404 43.992,10.577 C43.992,4.75 39.251,0.01 33.425,0.01 C27.599,0.01 22.858,4.75 22.858,10.577 C22.858,16.404 27.598,21.144 33.425,21.144 Z M33.425,2.916 C37.65,2.916 41.086,6.353 41.086,10.577 C41.086,14.801 37.649,18.238 33.425,18.238 C29.201,18.238 25.764,14.801 25.764,10.577 C25.764,6.353 29.201,2.916 33.425,2.916 Z" id="Shape" fill-rule="nonzero"></path>
                <path d="M59.554,18.696 C64.031,18.696 67.673,15.054 67.673,10.577 C67.673,6.1 64.03,2.458 59.554,2.458 C55.078,2.458 51.435,6.1 51.435,10.577 C51.435,15.054 55.077,18.696 59.554,18.696 Z M59.554,5.364 C62.428,5.364 64.767,7.702 64.767,10.577 C64.767,13.452 62.428,15.79 59.554,15.79 C56.68,15.79 54.341,13.452 54.341,10.577 C54.341,7.702 56.68,5.364 59.554,5.364 Z" id="Shape" fill-rule="nonzero"></path>
                <path d="M35.535,33.189 C35.535,39.015 40.275,43.755 46.1,43.755 C51.926,43.755 56.666,39.015 56.666,33.189 C56.666,27.363 51.926,22.623 46.1,22.623 C40.275,22.623 35.535,27.363 35.535,33.189 Z M46.101,25.529 C50.325,25.529 53.761,28.965 53.761,33.189 C53.761,37.413 50.324,40.849 46.101,40.849 C41.878,40.849 38.442,37.413 38.442,33.189 C38.442,28.965 41.877,25.529 46.101,25.529 Z" id="Shape" fill-rule="nonzero"></path>
            </g>
        </g>
    </g>
</svg>