<?xml version="1.0" encoding="UTF-8"?>
<svg width="99px" height="96px" viewBox="0 0 99 96" version="1.1" xmlns="http://www.w3.org/2000/svg" xmlns:xlink="http://www.w3.org/1999/xlink">
    <!-- Generator: Sketch 52.6 (67491) - http://www.bohemiancoding.com/sketch -->
    <title>14624171981535797986</title>
    <desc>Created with Sketch.</desc>
    <g id="Page-1" stroke="none" stroke-width="1" fill="none" fill-rule="evenodd">
        <g id="Desktop-View-Copy-5" transform="translate(-214.000000, -266.000000)" fill="#FFFFFF">
            <g id="14624171981535797986" transform="translate(214.000000, 266.000000)">
                <path d="M55.939,43.942 C55.939,44.745 56.589,45.395 57.392,45.395 C58.195,45.395 58.845,44.745 58.845,43.942 C58.845,39.91 55.275,36.57 50.637,35.983 L50.637,29.807 C50.637,29.004 49.987,28.354 49.184,28.354 C48.381,28.354 47.731,29.004 47.731,29.807 L47.731,35.983 C43.093,36.571 39.523,39.911 39.523,43.942 C39.523,47.971 43.092,51.31 47.731,51.898 L47.731,62.189 C44.703,61.681 42.428,59.618 42.428,57.154 C42.428,56.351 41.778,55.701 40.975,55.701 C40.172,55.701 39.522,56.351 39.522,57.154 C39.522,61.189 43.093,64.531 47.731,65.117 L47.731,71.29 C47.731,72.093 48.381,72.743 49.184,72.743 C49.987,72.743 50.637,72.093 50.637,71.29 L50.637,65.116 C55.276,64.526 58.844,61.186 58.844,57.155 C58.844,53.125 55.275,49.786 50.637,49.197 L50.637,38.911 C53.666,39.42 55.939,41.481 55.939,43.942 Z M42.43,43.942 C42.43,41.481 44.704,39.421 47.732,38.912 L47.732,48.97 C44.704,48.461 42.43,46.401 42.43,43.942 Z M55.938,57.153 C55.938,59.614 53.665,61.675 50.637,62.186 L50.637,52.123 C53.666,52.634 55.938,54.694 55.938,57.153 Z" id="Shape" fill-rule="nonzero"></path>
                <path d="M49.177,22.291 C33.597,22.291 20.922,34.966 20.922,50.546 C20.922,66.126 33.597,78.801 49.177,78.801 C64.757,78.801 77.432,66.126 77.432,50.546 C77.432,34.966 64.757,22.291 49.177,22.291 Z M49.177,75.895 C35.199,75.895 23.828,64.524 23.828,50.546 C23.828,36.568 35.199,25.197 49.177,25.197 C63.155,25.197 74.526,36.568 74.526,50.546 C74.526,64.524 63.154,75.895 49.177,75.895 Z" id="Shape" fill-rule="nonzero"></path>
                <path d="M97.827,85.228 C97.252,84.67 96.332,84.683 95.772,85.259 L90.563,90.631 L90.563,43.3 C90.563,42.497 89.913,41.847 89.11,41.847 C88.307,41.847 87.657,42.497 87.657,43.3 L87.657,90.701 L82.325,85.202 C81.765,84.626 80.846,84.613 80.27,85.171 C79.694,85.73 79.68,86.65 80.239,87.226 L88.033,95.263 C88.306,95.545 88.682,95.704 89.076,95.704 C89.47,95.704 89.846,95.545 90.119,95.263 L97.858,87.283 C98.417,86.706 98.403,85.786 97.827,85.228 Z" id="Path"></path>
                <path d="M10.36,0.423 C10.315,0.378 10.257,0.36 10.209,0.322 C10.186,0.306 10.163,0.29 10.139,0.275 C9.573,-0.11 8.808,-0.078 8.306,0.424 L0.511,8.216 C-0.056,8.783 -0.057,9.704 0.511,10.271 C0.795,10.555 1.166,10.697 1.538,10.697 C1.91,10.697 2.282,10.555 2.565,10.271 L7.913,4.925 L7.913,50.86 C7.913,51.663 8.563,52.313 9.366,52.313 C10.169,52.313 10.819,51.663 10.819,50.86 L10.819,4.991 L16.048,10.216 C16.616,10.784 17.536,10.782 18.103,10.216 C18.67,9.648 18.67,8.728 18.103,8.161 L10.36,0.423 Z" id="Path"></path>
            </g>
        </g>
    </g>
</svg>