<?xml version="1.0" encoding="UTF-8"?>
<svg width="92px" height="92px" viewBox="0 0 92 92" version="1.1" xmlns="http://www.w3.org/2000/svg" xmlns:xlink="http://www.w3.org/1999/xlink">
    <!-- Generator: Sketch 52.6 (67491) - http://www.bohemiancoding.com/sketch -->
    <title>15981174051535797986</title>
    <desc>Created with Sketch.</desc>
    <g id="Page-1" stroke="none" stroke-width="1" fill="none" fill-rule="evenodd">
        <g id="Desktop-View-Copy-5" transform="translate(-988.000000, -1203.000000)" fill="#FFFFFF">
            <g id="15981174051535797986" transform="translate(988.000000, 1203.000000)">
                <path d="M32.258,53.956 L32.258,47.097 C37.312,46.503 41.216,42.89 41.216,38.522 C41.216,34.158 37.312,30.547 32.258,29.953 L32.258,18.453 C35.703,18.974 38.31,21.309 38.31,24.104 C38.31,24.907 38.96,25.557 39.763,25.557 C40.566,25.557 41.216,24.907 41.216,24.104 C41.216,19.736 37.311,16.122 32.258,15.531 L32.258,8.67 C32.258,7.867 31.608,7.217 30.805,7.217 C30.002,7.217 29.352,7.867 29.352,8.67 L29.352,15.532 C24.294,16.123 20.385,19.737 20.385,24.106 C20.385,28.47 24.294,32.08 29.352,32.671 L29.352,44.178 C25.903,43.659 23.291,41.322 23.291,38.523 C23.291,37.72 22.641,37.07 21.838,37.07 C21.035,37.07 20.385,37.72 20.385,38.523 C20.385,42.895 24.294,46.511 29.352,47.1 L29.352,53.957 C29.352,54.76 30.002,55.41 30.805,55.41 C31.608,55.41 32.258,54.759 32.258,53.956 Z M38.31,38.522 C38.31,41.317 35.704,43.652 32.258,44.175 L32.258,32.875 C35.704,33.398 38.31,35.73 38.31,38.522 Z M23.291,24.105 C23.291,21.309 25.902,18.974 29.352,18.454 L29.352,29.748 C25.902,29.228 23.291,26.897 23.291,24.105 Z" id="Shape" fill-rule="nonzero"></path>
                <path d="M61.513,31.311 C61.513,14.375 47.734,0.598 30.797,0.598 C13.86,0.598 0.081,14.375 0.081,31.311 C0.081,48.247 13.86,62.026 30.797,62.026 C47.734,62.026 61.513,48.247 61.513,31.311 Z M2.987,31.311 C2.987,15.978 15.462,3.504 30.797,3.504 C46.132,3.504 58.607,15.978 58.607,31.311 C58.607,46.645 46.132,59.12 30.797,59.12 C15.462,59.12 2.987,46.646 2.987,31.311 Z" id="Shape" fill-rule="nonzero"></path>
                <path d="M91.873,59.335 L88.824,47.458 C88.626,46.683 87.832,46.216 87.06,46.411 L75.265,49.398 C74.487,49.594 74.016,50.385 74.213,51.163 C74.409,51.941 75.203,52.411 75.978,52.215 L84.411,50.08 L69.074,73.944 L59.175,59.513 C58.892,59.101 58.437,58.894 57.913,58.883 C57.412,58.905 56.958,59.184 56.711,59.62 L43.402,83.183 L29.34,72.894 C28.74,72.455 27.902,72.54 27.402,73.095 L12.782,89.349 C12.245,89.946 12.294,90.865 12.891,91.401 C13.169,91.651 13.516,91.774 13.862,91.774 C14.26,91.774 14.656,91.612 14.943,91.293 L28.684,76.016 L43.005,86.495 C43.34,86.74 43.766,86.832 44.169,86.742 C44.575,86.655 44.924,86.398 45.128,86.037 L58.096,63.081 L67.915,77.394 C68.19,77.795 68.64,78.034 69.135,78.025 C69.622,78.017 70.073,77.767 70.336,77.357 L86.888,51.603 L89.059,60.059 C89.227,60.715 89.818,61.151 90.465,61.151 C90.584,61.151 90.706,61.136 90.827,61.105 C91.604,60.904 92.073,60.112 91.873,59.335 Z" id="Path"></path>
            </g>
        </g>
    </g>
</svg>