<?xml version="1.0" encoding="UTF-8"?>
<svg width="24px" height="24px" viewBox="0 0 24 24" version="1.1" xmlns="http://www.w3.org/2000/svg" xmlns:xlink="http://www.w3.org/1999/xlink">
    <!-- Generator: Sketch 52.6 (67491) - http://www.bohemiancoding.com/sketch -->
    <title>1947697821552644384</title>
    <desc>Created with Sketch.</desc>
    <g id="Page-1" stroke="none" stroke-width="1" fill="none" fill-rule="evenodd">
        <g id="Desktop-View-Copy-6" transform="translate(-1327.000000, -1504.000000)" fill="#FFFFFF" fill-rule="nonzero">
            <g id="1947697821552644384" transform="translate(1327.000000, 1504.000000)">
                <path d="M22.2,14.4 L21,13.7 C19.7,12.9 19.7,11 21,10.2 L22.2,9.5 C23.2,8.9 23.5,7.7 22.9,6.8 L21.9,5.1 C21.3,4.1 20.1,3.8 19.2,4.4 L18,5.1 C16.7,5.9 15,4.9 15,3.4 L15,2 C15,0.9 14.1,0 13,0 L11,0 C9.9,0 9,0.9 9,2 L9,3.3 C9,4.8 7.3,5.8 6,5 L4.8,4.4 C3.8,3.8 2.6,4.2 2.1,5.1 L1.1,6.8 C0.6,7.8 0.9,9 1.8,9.6 L3,10.3 C4.3,11 4.3,13 3,13.7 L1.8,14.4 C0.8,15 0.5,16.2 1.1,17.1 L2.1,18.8 C2.7,19.8 3.9,20.1 4.8,19.5 L6,18.9 C7.3,18.1 9,19.1 9,20.6 L9,22 C9,23.1 9.9,24 11,24 L13,24 C14.1,24 15,23.1 15,22 L15,20.7 C15,19.2 16.7,18.2 18,19 L19.2,19.7 C20.2,20.3 21.4,19.9 21.9,19 L22.9,17.3 C23.4,16.2 23.1,15 22.2,14.4 Z M12,16 C9.8,16 8,14.2 8,12 C8,9.8 9.8,8 12,8 C14.2,8 16,9.8 16,12 C16,14.2 14.2,16 12,16 Z" id="settings"></path>
            </g>
        </g>
    </g>
</svg>