<?xml version="1.0" encoding="UTF-8"?>
<svg width="58px" height="58px" viewBox="0 0 58 58" version="1.1" xmlns="http://www.w3.org/2000/svg" xmlns:xlink="http://www.w3.org/1999/xlink">
    <!-- Generator: Sketch 52.6 (67491) - http://www.bohemiancoding.com/sketch -->
    <title>2136339-ffc107</title>
    <desc>Created with Sketch.</desc>
    <g id="Page-1" stroke="none" stroke-width="1" fill="none" fill-rule="evenodd">
        <g id="Desktop-View-Copy-7" transform="translate(-398.000000, -314.000000)" fill="#FFC107">
            <g id="2136339-ffc107" transform="translate(398.000000, 314.000000)">
                <g id="Group" transform="translate(29.000000, 29.000000) scale(-1, 1) rotate(-180.000000) translate(-29.000000, -29.000000) ">
                    <path d="M26.8790938,57.9523731 C19.0619716,57.3808507 11.801855,53.6516669 6.75071821,47.6221054 C1.40441599,41.2353424 -0.928342773,32.8339629 0.342772716,24.5707013 C0.780760076,21.7178519 1.6424526,18.9602562 2.90880735,16.3455411 C5.92235082,10.1207095 11.1496347,5.11988832 17.5242551,2.36229266 C27.0266765,-1.73838069 38.1144217,-0.428641813 46.374292,5.78190179 C47.4930641,6.62013467 48.3547566,7.38216456 49.4925716,8.52044671 C51.0302881,10.0540319 52.0871706,11.3351946 53.182139,12.9973723 C57.4572765,19.4698637 58.9616679,27.3092462 57.395387,34.9343078 C55.6101125,43.6071605 49.8305836,51.0798161 41.8515965,55.0233207 C38.519084,56.6712104 35.053271,57.6285104 31.2780103,57.9333224 C30.3211032,58.0095254 27.836001,58.0190507 26.8790938,57.9523731 Z M31.1018633,53.4087699 C35.7340557,53.027755 40.2567512,51.2655608 43.9701223,48.388898 C51.1016991,42.868944 54.6198802,33.9008047 53.1535747,24.9993431 C52.134778,18.8173756 48.7260937,13.2116932 43.6844784,9.42059451 C42.4133629,8.46805715 41.2850694,7.77746756 39.8044817,7.0440138 C37.0337355,5.68188537 34.3582041,4.92938085 31.1399491,4.60551815 C30.1973241,4.5150271 27.621768,4.52931516 26.6172536,4.63409427 C22.0326685,5.11036295 17.9336781,6.71062572 14.2869572,9.44917064 C13.2824427,10.2016752 12.6064188,10.797011 11.6685545,11.7352603 C6.06041205,17.3552307 3.55626693,25.2231894 4.86546828,33.0959107 C5.50340639,36.9298735 7.05540507,40.5447528 9.42624969,43.7167022 C10.7259296,45.4598456 12.5540507,47.279192 14.3250431,48.6079816 C19.1762292,52.2419116 24.9986046,53.908852 31.1018633,53.4087699 Z" id="Shape" fill-rule="nonzero"></path>
                    <path d="M27.8074366,50.1129906 C24.1083477,49.8843817 20.5568415,48.7175234 17.5004514,46.7267203 C13.8442091,44.3453769 10.9830091,40.8686155 9.41672823,36.9012974 C8.06944102,33.4912137 7.60288927,29.8858597 8.05515883,26.3567088 C8.27891324,24.5945147 8.69785767,22.9847266 9.36436017,21.2844474 C9.9451695,19.8080145 10.5497825,18.6506816 11.4781253,17.259977 C14.1012887,13.321235 17.9193959,10.4350468 22.4706558,8.94432583 C26.2459164,7.70602726 30.3972749,7.57267203 34.234425,8.56807358 C42.4942953,10.70652 48.6356398,17.5266875 49.8734302,25.928067 C50.054338,27.1377895 50.0876631,27.6331089 50.0829024,29.0714403 C50.0829024,30.1192314 50.0590987,30.6907538 49.9972092,31.2146494 C49.6925224,33.8531779 49.0498235,36.0583019 47.9167693,38.3586796 C44.5890175,45.1359829 37.9001888,49.5986205 30.3306246,50.0987026 C29.6736436,50.1415668 28.3787245,50.1510921 27.8074366,50.1129906 Z M29.364196,42.092626 C29.9735697,41.9306947 30.4924895,41.7878141 30.5115325,41.7687633 C30.5305754,41.7449499 30.3306246,40.9019543 30.0640236,39.8875021 C29.7974226,38.8730498 29.5879504,38.0395796 29.5974719,38.0300542 C29.6260363,38.0110034 31.425593,37.5775989 31.4351145,37.591887 C31.4398752,37.5966497 31.6588689,38.4253572 31.9254699,39.4302841 C32.1920709,40.4399737 32.4158253,41.2686812 32.4205861,41.2734439 C32.439629,41.2924947 34.6628909,40.7019215 34.7009768,40.6685827 C34.7200197,40.6495319 34.5248297,39.8255871 34.2629894,38.8301856 C34.0011491,37.8395467 33.7821555,36.9870258 33.772634,36.9393989 C33.7631125,36.8727213 33.8630879,36.8155691 34.2820323,36.648875 C36.7290487,35.6868123 38.0810966,34.4199376 38.3572191,32.8292002 C38.4429123,32.3434061 38.3857835,31.4527837 38.2382008,30.886024 C37.8573422,29.4191164 36.9861282,28.5142059 35.5579086,28.0903268 L35.3579578,28.0331746 L35.6245588,27.8712432 C36.4957728,27.3473477 37.0956251,26.7520118 37.4241156,26.080473 C37.7288024,25.456561 37.8002134,25.1422237 37.8002134,24.4278207 C37.8002134,22.5465594 36.7480916,20.4890787 35.3627185,19.6651338 C34.5486333,19.1841025 33.8297628,19.0031204 32.582451,18.9650189 C31.6017401,18.9364428 31.0209308,18.9793069 29.8878765,19.1698144 C29.4832143,19.236492 29.1499631,19.2841189 29.1404416,19.2745935 C29.1309201,19.2650682 28.902405,18.4220726 28.635804,17.4028576 C28.369203,16.3788799 28.1311664,15.526359 28.1121235,15.5025456 C28.0835591,15.4739695 25.8555364,16.0121531 25.7984076,16.0645426 C25.7936469,16.0693053 26.0126406,16.9170636 26.2840023,17.9505666 C26.555364,18.9840696 26.7648362,19.8461159 26.7457933,19.8651667 C26.7267504,19.8842174 26.4982352,19.9508951 26.236395,20.0175727 C25.9745547,20.0842503 25.5794139,20.1937921 25.3556595,20.255707 C25.1366658,20.3223846 24.9509973,20.3700115 24.9414758,20.3652488 C24.9367151,20.3557234 24.7129607,19.5174906 24.4463597,18.4982756 C24.1797587,17.4742979 23.9464828,16.621777 23.9274399,16.6027262 C23.889354,16.559862 21.6898958,17.1170964 21.6375277,17.1790113 C21.6232455,17.1980621 21.8327177,18.050583 22.1040795,19.069798 C22.3706805,20.0937757 22.5944349,20.9510593 22.5944349,20.9796354 C22.5944349,21.0415503 22.5801527,21.046313 19.8808175,21.760716 C18.7287203,22.065528 17.9574817,22.294137 17.9622425,22.3274758 C17.9717639,22.3560519 18.2336042,22.9561504 18.5478125,23.6562654 L19.1238611,24.9374281 L19.9665107,24.7040565 C20.9424608,24.4325833 21.2566691,24.4040072 21.5137487,24.5659386 C21.6089633,24.6230908 21.7279816,24.742158 21.7851104,24.832649 C21.9041287,25.0279192 24.6415497,35.4058138 24.6415497,35.6677615 C24.6415497,36.1440302 24.2844948,36.6107735 23.7798572,36.7965183 C23.6370352,36.8536706 23.1514405,36.9870258 22.699171,37.1013303 C22.2469014,37.2156348 21.8850858,37.3347019 21.8946072,37.3585154 C21.9041287,37.3870915 22.0469507,37.9348005 22.2135763,38.5872886 C22.4373307,39.4445722 22.5373061,39.7636722 22.5896741,39.7636722 C22.62776,39.7636722 23.3133054,39.5922155 24.1131084,39.3778946 C26.5934499,38.7206438 27.1837807,38.5730005 27.2171058,38.611102 C27.2361487,38.6301527 27.4694246,39.4874364 27.7360256,40.5161767 C28.0073873,41.5401544 28.2359025,42.3831499 28.2406632,42.3831499 C28.2501847,42.3831499 28.7548223,42.2545574 29.364196,42.092626 Z" id="Shape" fill-rule="nonzero"></path>
                    <path d="M28.8976443,35.220069 C28.8881228,35.1914929 28.6215218,34.1818033 28.3073135,32.9768435 C27.9931051,31.7718837 27.7217434,30.7526687 27.7122219,30.7145673 C27.6693754,30.5764493 29.630797,30.1001807 30.6400722,29.9954015 C32.4205861,29.8191821 33.4631864,30.3716538 33.7631125,31.6528166 C34.0773209,32.9911315 33.1251744,34.03416 30.9542806,34.7390376 C30.0592629,35.0247988 28.9262087,35.296272 28.8976443,35.220069 Z" id="Path"></path>
                    <path d="M27.0695231,28.2760716 C27.0695231,28.2665462 26.769597,27.1282641 26.4030206,25.7375595 C26.041205,24.3516177 25.755561,23.1990475 25.774604,23.1847594 C25.8222113,23.1371325 27.1552163,22.779931 27.7931544,22.6418131 C28.7357794,22.4417803 29.3023065,22.37034 30.0449807,22.3655773 C31.639826,22.3512892 32.4967578,22.8085071 32.8823771,23.8848744 C33.025199,24.2754147 33.0299598,24.970767 32.8918985,25.3136804 C32.5253222,26.2424043 31.5398506,26.96157 29.8307478,27.5473805 C29.1737667,27.7712268 27.0695231,28.3236985 27.0695231,28.2760716 Z" id="Path"></path>
                </g>
            </g>
        </g>
    </g>
</svg>