<?xml version="1.0" encoding="UTF-8"?>
<svg width="24px" height="24px" viewBox="0 0 24 24" version="1.1" xmlns="http://www.w3.org/2000/svg" xmlns:xlink="http://www.w3.org/1999/xlink">
    <!-- Generator: Sketch 52.6 (67491) - http://www.bohemiancoding.com/sketch -->
    <title>15612094681606430944</title>
    <desc>Created with Sketch.</desc>
    <g id="Page-1" stroke="none" stroke-width="1" fill="none" fill-rule="evenodd">
        <g id="Desktop-View-Copy-6" transform="translate(-1369.000000, -1509.000000)" fill="#FFFFFF" fill-rule="nonzero">
            <g id="15612094681606430944" transform="translate(1369.000000, 1509.000000)">
                <path d="M12,2 C17.514,2 22,6.486 22,12 C22,17.514 17.514,22 12,22 C6.486,22 2,17.514 2,12 C2,6.486 6.486,2 12,2 Z M12,0 C5.373,0 0,5.373 0,12 C0,18.627 5.373,24 12,24 C18.627,24 24,18.627 24,12 C24,5.373 18.627,0 12,0 Z M12,3 C7.029,3 3,7.029 3,12 C3,16.971 7.029,21 12,21 C16.971,21 21,16.971 21,12 C21,7.029 16.971,3 12,3 Z M13,16.947 L13,18 L12,18 L12,17.002 C10.965,16.984 9.894,16.737 9,16.275 L9.455,14.631 C10.411,15.002 11.684,15.396 12.68,15.171 C13.829,14.911 14.065,13.729 12.794,13.16 C11.863,12.726 9.016,12.355 9.016,9.917 C9.016,8.554 10.055,7.334 12,7.067 L12,6 L13,6 L13,7.018 C13.725,7.037 14.535,7.163 15.442,7.438 L15.08,9.086 C14.312,8.816 13.464,8.571 12.638,8.621 C11.149,8.708 11.018,9.997 12.057,10.537 C13.768,11.341 16,11.938 16,14.083 C16.002,15.801 14.656,16.715 13,16.947 Z" id="Shape"></path>
            </g>
        </g>
    </g>
</svg>