<?xml version="1.0" encoding="UTF-8"?>
<svg width="58px" height="40px" viewBox="0 0 58 40" version="1.1" xmlns="http://www.w3.org/2000/svg" xmlns:xlink="http://www.w3.org/1999/xlink">
    <!-- Generator: Sketch 52.6 (67491) - http://www.bohemiancoding.com/sketch -->
    <title>gold-ingots-gold-svgrepo-com</title>
    <desc>Created with Sketch.</desc>
    <g id="Page-1" stroke="none" stroke-width="1" fill="none" fill-rule="evenodd">
        <g id="Desktop-View-Copy-7" transform="translate(-281.000000, -200.000000)">
            <g id="gold-ingots-gold-svgrepo-com" transform="translate(281.000000, 200.000000)">
                <polygon id="Path" fill="#F6C358" points="16.8850748 27 2.1149252 27 0 40 19 40"></polygon>
                <polygon id="Path" fill="#FCD462" points="17 27 2.12932005 27 0 40 13.472033 35.4302006"></polygon>
                <polygon id="Path" fill="#F6C358" points="35.8850748 27 21.1148092 27 19 40 38 40"></polygon>
                <polygon id="Path" fill="#FCD462" points="36 27 21.1292033 27 19 40 32.472033 35.4302006"></polygon>
                <polygon id="Path" fill="#F6C358" points="55.8850748 27 41.1149252 27 39 40 58 40"></polygon>
                <polygon id="Path" fill="#FCD462" points="56 27 41.1293201 27 39 40 52.472033 35.4302006"></polygon>
                <polygon id="Path" fill="#F6C358" points="26.8850748 14 12.1150412 14 10 27 29 27"></polygon>
                <polygon id="Path" fill="#FCD462" points="27 14 12.1294368 14 10 27 23.472033 22.430078"></polygon>
                <polygon id="Path" fill="#F6C358" points="45.8850748 14 31.1150412 14 29 27 48 27"></polygon>
                <polygon id="Path" fill="#FCD462" points="46 14 31.1294368 14 29 27 42.4721497 22.430078"></polygon>
                <polygon id="Path" fill="#F6C358" points="35.8850748 0 21.1150412 0 19 13 38 13"></polygon>
                <polygon id="Path" fill="#FCD462" points="36 0 21.1294368 0 19 13 32.472033 8.43007804"></polygon>
            </g>
        </g>
    </g>
</svg>