<?xml version="1.0" encoding="UTF-8"?>
<svg width="43px" height="40px" viewBox="0 0 43 40" version="1.1" xmlns="http://www.w3.org/2000/svg" xmlns:xlink="http://www.w3.org/1999/xlink">
    <!-- Generator: Sketch 52.6 (67491) - http://www.bohemiancoding.com/sketch -->
    <title>29956-2196f3</title>
    <desc>Created with Sketch.</desc>
    <g id="Page-1" stroke="none" stroke-width="1" fill="none" fill-rule="evenodd">
        <g id="Desktop-View-Copy-7" transform="translate(-257.000000, -397.000000)" fill="#2196F3">
            <g id="29956-2196f3" transform="translate(257.000000, 397.000000)">
                <g id="Group" transform="translate(21.500000, 20.000000) scale(-1, 1) rotate(-180.000000) translate(-21.500000, -20.000000) ">
                    <path d="M19.471497,39.9684819 C19.2121613,39.9229557 18.8782221,39.751357 18.6828321,39.5587463 C18.0114012,38.9038697 17.9012723,37.6396428 18.3098149,35.2232534 C18.3488929,34.9921205 18.3808658,34.7784976 18.3808658,34.7469795 C18.3808658,34.7154614 18.2920522,34.624409 18.1854759,34.5438627 C18.075347,34.4633164 17.9012723,34.3092278 17.7911434,34.2006654 L17.599306,34.0045526 L16.3630205,34.1691473 C15.6844845,34.2566976 14.0041309,34.4808265 12.6292961,34.6629312 C10.1354098,34.9921205 10.1283047,34.9956225 9.89383675,34.9430923 C8.87425644,34.7119594 8.11045935,34.2111714 7.75165235,33.5422868 C7.52428949,33.1115391 7.44258096,32.6352653 7.55981494,32.4146384 C7.67704891,32.1905095 8.16730007,31.9873928 8.93109716,31.8438102 C9.15490747,31.801786 9.37871778,31.7597619 9.42490086,31.7527578 L9.51016193,31.7352478 L9.48884666,30.502539 C9.45687376,28.9021187 9.3645076,27.5083173 9.15846001,25.5752057 C8.6717614,20.9945719 7.54560476,15.0166346 6.1636649,9.67606374 L5.96116986,8.88811066 L5.46381362,8.86359657 C4.24529081,8.80406234 3.34649703,8.62195763 2.69993391,8.3067764 L2.42283543,8.17019786 L2.2771811,8.29627036 C2.0462657,8.50288916 1.85442829,8.57292943 1.50627892,8.57292943 C1.15102445,8.57292943 0.959187046,8.50288916 0.714061467,8.27876029 C0.273545935,7.87602872 0.284203569,7.1546139 0.73892928,6.78690247 C0.984054858,6.5907897 1.19365499,6.5137454 1.50983146,6.5137454 C1.74785195,6.51024339 1.8153503,6.52425144 2.01784534,6.62580984 C2.15284204,6.68884609 2.30204891,6.79740851 2.3730998,6.87795482 L2.49388632,7.01803537 L2.667961,6.93398704 C3.07295109,6.73087025 3.73372439,6.54876554 4.42291804,6.45421117 C5.12987442,6.35615479 6.38747521,6.34915076 7.1583774,6.44020312 L7.35731989,6.4612152 L7.37508262,6.2826125 C7.43192333,5.70478025 8.29874422,5.26702854 9.04477859,5.43862721 C9.75528751,5.59971984 10.1425149,6.0759937 9.993308,6.60479776 C9.95778255,6.74137629 9.68423662,7.04955349 9.50305684,7.15811592 L9.42134831,7.21064612 L9.51371447,7.34372264 C9.62384336,7.50831728 9.63094845,7.6659079 9.53502974,7.85151462 C9.29345671,8.32078445 8.082039,8.73402206 6.66457369,8.83207845 C6.42300066,8.84958851 6.22050562,8.86709858 6.21340053,8.87760462 C6.20629544,8.88460865 6.31997687,9.36438452 6.4656312,9.93871476 C8.03940846,16.0917528 9.18688037,22.5809841 9.56700264,27.4838032 C9.6593688,28.6324637 9.67713153,29.0246892 9.71976206,30.3309403 L9.7623926,31.7107337 L9.92580965,31.6897216 C11.0093358,31.549641 13.6311137,31.4235686 15.4677792,31.4235686 C15.9473728,31.4235686 16.5193325,31.4130625 16.7395902,31.3990545 L17.1374752,31.3780424 L17.2582617,31.1293994 C17.5673331,30.4990369 18.1961335,29.9177027 18.8675644,29.6480476 C19.0522968,29.5710033 19.0522968,29.6060235 18.9315102,28.7725442 C18.1961335,23.6596043 16.1534204,16.8867099 12.9383675,8.90912275 C12.3877231,7.54333742 12.3877231,7.53283138 12.6150859,7.37874278 C12.739425,7.29469445 12.4552214,7.30169848 20.0327991,7.22115216 C22.0861699,7.20014008 23.770076,7.17562598 23.7771811,7.16862196 C23.7842862,7.16161793 23.7487607,7.06005953 23.6954726,6.94449308 C23.6457369,6.82542462 23.6031064,6.70985817 23.6031064,6.68534407 C23.6031064,6.65732796 23.6599471,6.5137454 23.730998,6.36315882 L23.8588896,6.08649974 L23.7238929,5.83435475 L23.5853437,5.58220977 L23.6492895,5.42111714 C23.6812624,5.3335668 23.7381031,5.19348625 23.770076,5.10593591 L23.8304693,4.95184731 L23.7203404,4.71371038 L23.606659,4.47557345 L23.5924488,3.64559622 C23.5817911,3.06776396 23.5888962,2.79810891 23.6173166,2.76659079 C23.8020489,2.54596393 25.361616,2.39887936 27.1023629,2.44090352 C27.6494547,2.45140956 28.1397059,2.47242164 28.1965466,2.48292768 L28.2924653,2.50393977 L28.2924653,1.76151287 C28.2924653,1.09262826 28.2853602,1.01208195 28.232072,0.96655577 C28.1716788,0.917527578 28.1716788,0.917527578 28.232072,0.935037647 C28.2853602,0.952547715 28.2924653,0.928033619 28.2924653,0.714410786 C28.2924653,0.525302049 28.3066755,0.465767816 28.3599636,0.416739625 C28.5802214,0.22062686 29.8022968,0.0595342322 31.4044944,0.0140080546 C33.6994382,-0.0455261776 35.8629379,0.115566451 36.3318738,0.388723516 L36.4277925,0.444755735 L36.4277925,1.60742427 L36.4277925,2.76659079 L36.2501652,3.13780424 L36.0689855,3.50901769 L36.2501652,3.85921905 L36.4277925,4.21292243 L36.2537178,4.55611977 L36.0796431,4.89931711 L36.2537178,5.30204868 L36.431345,5.70127823 L36.2501652,6.07249168 L36.072538,6.44720714 L36.2537178,6.81491858 L36.4348976,7.18263001 L36.2217449,7.53633339 L36.0085922,7.89353878 L36.2181923,8.27525827 L36.431345,8.65697776 L36.2501652,9.01068114 L36.0689855,9.36438452 L36.2501652,9.75310804 L36.4277925,10.1418316 L36.4277925,11.26948 C36.4277925,12.5512169 36.4455552,12.4706706 36.1187211,12.568727 C35.0316424,12.8909123 31.3192333,12.9749606 29.3937541,12.7193136 C28.9461335,12.6597794 28.4771976,12.5477149 28.3812789,12.4741726 C28.3031229,12.4111364 28.2924653,12.3761163 28.2924653,12.1835055 L28.2924653,11.9663807 L28.1787839,11.9803887 C28.1148381,11.9838907 27.7524785,12.0014008 27.3723562,12.0154089 L26.6867151,12.039923 L26.2461996,13.1255472 C25.0276768,16.1162669 24.1217779,18.711259 23.6102115,20.6723866 C23.1448282,22.4409035 23.0204891,23.852215 22.8925975,28.8811066 L22.857072,30.2048678 L23.0844349,30.4430047 C23.3224554,30.6916477 23.5462657,31.0418491 23.6563946,31.3290142 L23.7203404,31.4936088 L24.0258592,31.4936088 C24.1928288,31.4936088 24.4628222,31.5041149 24.6226867,31.5146209 L24.9104428,31.539135 L24.9353106,31.3675363 C25.0951751,30.1943618 25.8731824,29.3188583 27.031312,29.0001751 C27.3084104,28.9266328 27.3688037,28.9231308 29.6246695,28.9091227 C32.0652677,28.8951147 32.5057832,28.9126248 32.9143258,29.0457013 C33.685228,29.2943442 34.2678453,29.7951322 34.6017845,30.4955349 C34.8149372,30.9472947 34.8682254,31.2169497 34.8895406,32.0014008 C34.9250661,33.1570653 34.8220423,33.7489056 34.4952082,34.2987218 C34.1257436,34.9150762 33.5822042,35.3318158 32.8397224,35.5594467 L32.5732816,35.643495 L29.9088731,35.643495 C26.9176305,35.643495 27.077495,35.6575031 26.4913252,35.377342 C25.6635823,34.9851164 25.0845175,34.2076694 24.9495208,33.2971459 C24.9282056,33.1535633 24.8997852,33.0344948 24.885575,33.0344948 C24.8749174,33.0379968 24.6013714,33.073017 24.2816424,33.1150411 L23.6990251,33.1955875 L23.5533708,33.4757486 C23.372191,33.8259499 23.1554858,34.106111 22.8677297,34.361758 C22.6226041,34.5753808 22.6474719,34.5088426 22.5693159,35.2057433 C22.4058989,36.7221152 22.1074851,37.951322 21.7131527,38.725267 C21.3578982,39.4116617 20.8392267,39.8599195 20.267267,39.9684819 C20.0505618,40.007004 19.7201751,40.007004 19.471497,39.9684819 Z M20.2956874,39.233059 C20.3702908,39.1945369 20.3702908,39.1910348 20.3098976,39.1139905 C20.1820059,38.9528979 19.8374091,38.5921905 19.8267515,38.6061986 C19.8196464,38.6132026 19.705965,38.7462791 19.5745208,38.8968657 C19.30808,39.2015409 19.30808,39.2120469 19.588731,39.2715812 C19.7557006,39.3101033 20.2033212,39.2820872 20.2956874,39.233059 Z M21.0381692,38.46962 C21.2157964,38.1334267 21.3401355,37.8147435 21.4573695,37.3804938 C21.5071051,37.1948871 21.5568407,37.0162844 21.5639458,36.9847662 C21.5817085,36.932236 21.5603933,36.92173 21.4289491,36.92173 L21.2761897,36.92173 L20.6722571,37.6256347 C20.3418705,38.0108562 20.0683245,38.3400455 20.0683245,38.3575556 C20.0683245,38.3750657 20.1962161,38.5326563 20.3525281,38.711259 L20.6367317,39.0299422 L20.7646233,38.8863597 C20.8356742,38.8058133 20.9600132,38.6202066 21.0381692,38.46962 Z M19.3258427,38.725267 C19.4395241,38.5921905 19.5567581,38.45211 19.5816259,38.4205918 C19.6242564,38.3680616 19.5851785,38.3085274 19.2263714,37.9057958 C19.0061137,37.6571529 18.8107237,37.4505341 18.792961,37.4505341 C18.7432254,37.44353 18.8000661,38.1824549 18.8746695,38.46962 C18.9315102,38.6867449 19.0807171,39.0159342 19.1091375,38.980914 C19.11269,38.97391 19.2121613,38.8618456 19.3258427,38.725267 Z M20.3702908,37.5170723 C20.6438367,37.1983891 20.8676471,36.932236 20.8676471,36.92173 C20.8676471,36.911224 20.4058163,36.9077219 19.8374091,36.914726 C19.1553206,36.92173 18.8071712,36.935738 18.8071712,36.9602521 C18.8071712,37.0092803 19.8089888,38.1159167 19.8409617,38.1054106 C19.8587244,38.0984066 20.0931923,37.8357556 20.3702908,37.5170723 Z M21.2832948,36.4664682 C21.3543457,36.3859219 21.4325017,36.3298897 21.460922,36.3403957 C21.4857898,36.3509018 21.5071051,36.3473998 21.5035525,36.3333917 C21.5035525,36.3193836 21.3863186,36.0637366 21.2442168,35.7660655 C21.0701421,35.3983541 20.9706709,35.2267554 20.9351454,35.2337594 C20.8321216,35.2582735 19.9901685,35.2442655 19.8089888,35.2127473 L19.6207039,35.1812292 L19.269002,35.5944668 C18.9208526,36.0007004 18.9137475,36.0112064 18.8782221,36.2458414 C18.8604594,36.3754159 18.8426966,36.5119944 18.8426966,36.5470145 C18.8426966,36.6030468 18.9208526,36.6065488 19.9972736,36.6065488 L21.1518506,36.6065488 L21.2832948,36.4664682 Z M21.8410443,35.3563299 C21.8623596,35.1567151 21.8730172,34.9956225 21.8623596,34.9956225 C21.8481494,34.9956225 21.7451256,35.0271406 21.6314442,35.0656628 C21.5177627,35.1041849 21.3969762,35.135703 21.3578982,35.135703 C21.3223728,35.135703 21.2939524,35.1427071 21.2939524,35.1497111 C21.2939524,35.1567151 21.3756609,35.3353178 21.4751322,35.5419366 C21.5746034,35.7520574 21.6740747,35.9621783 21.69539,36.0112064 C21.7273629,36.0917528 21.7344679,36.0847487 21.7628883,35.906146 C21.780651,35.8010856 21.8161765,35.5524427 21.8410443,35.3563299 Z M19.1553206,35.2687795 C19.2157138,35.1917352 19.269002,35.1146909 19.269002,35.1006829 C19.269002,35.0796708 19.0842697,35.0236386 19.0665069,35.0411487 C19.0487442,35.0621607 18.9990086,35.4158641 19.0167713,35.4123621 C19.0274289,35.4123621 19.0913748,35.3493259 19.1553206,35.2687795 Z M22.1607733,29.6305376 C22.1714309,29.5850114 22.1820886,29.3013483 22.1820886,28.9931711 L22.1820886,28.4363509 L21.7770985,28.9231308 C21.5532882,29.1892838 21.3756609,29.4169147 21.3863186,29.4309228 C21.3934237,29.4414288 21.4751322,29.4729469 21.5674983,29.497461 C21.6634171,29.5254771 21.819729,29.5815094 21.9156477,29.6235335 C22.139458,29.7250919 22.1323529,29.7250919 22.1607733,29.6305376 Z M19.9546431,29.0106811 C19.8054362,28.8460865 19.6704395,28.706006 19.6597819,28.6990019 C19.6455717,28.6954999 19.6455717,28.7725442 19.6633344,28.8741026 C19.6775446,28.975661 19.6988599,29.1297496 19.7095175,29.220802 L19.7343853,29.3783926 L19.9795109,29.3468745 L20.2246365,29.3118543 L19.9546431,29.0106811 Z M21.5035525,28.7795482 C21.8943325,28.3137804 21.9618308,28.215724 21.9014375,28.20872 C21.8623596,28.201716 21.3188202,28.1561898 20.6900198,28.1036596 C19.6846497,28.0196113 19.5532056,28.0161093 19.5532056,28.0616354 C19.5532056,28.0896515 19.791226,28.3838207 20.0860872,28.709508 C20.6331791,29.3188583 20.6793622,29.3573805 20.9244878,29.3468745 C21.0204065,29.3398704 21.0914574,29.2733322 21.5035525,28.7795482 Z M22.0684071,27.8900368 C22.0506444,27.8410086 20.5692333,25.9289091 20.547918,25.9289091 C20.5372604,25.9254071 20.2921348,26.2896165 19.9972736,26.7308703 C19.6242564,27.2946944 19.4679445,27.5573455 19.4750496,27.6133777 C19.4821547,27.6589039 19.4928123,27.697426 19.4963648,27.700928 C19.4999174,27.7079321 21.8303866,27.9075468 21.9973562,27.9180529 C22.0435393,27.9180529 22.0755122,27.9075468 22.0684071,27.8900368 Z M22.3064276,25.2425144 C22.3384005,24.60865 22.3845836,23.8592191 22.4094514,23.579058 C22.4378718,23.2988969 22.452082,23.064262 22.4485294,23.0607599 C22.4414243,23.0537559 22.4165565,23.081772 22.3952412,23.1272982 C22.3703734,23.1693224 21.9831461,23.7541586 21.5355254,24.4265453 L20.7184402,25.65225 L20.821464,25.7783225 C20.8783047,25.8483628 21.2122439,26.2756085 21.5603933,26.7273682 L22.1998513,27.5503414 L22.2247191,26.9725092 C22.2389293,26.657328 22.2780073,25.8798809 22.3064276,25.2425144 Z M19.869382,26.3841709 C20.1251652,25.9989494 20.3347654,25.6767641 20.3347654,25.6627561 C20.3347654,25.63474 18.5940185,23.4039573 18.5691507,23.4039573 C18.5584931,23.4039573 18.5620456,23.4319734 18.5762558,23.4669935 C18.6259914,23.586062 19.0522968,25.4666433 19.1979511,26.1880581 C19.3755783,27.0845736 19.3720258,27.0810716 19.3897885,27.0810716 C19.3968936,27.0810716 19.6135988,26.7658904 19.869382,26.3841709 Z M21.9192003,23.3094029 C22.2105089,22.8681492 22.3064276,22.7035545 22.2602445,22.7035545 C22.2282716,22.7035545 21.3330304,22.6300123 20.2708196,22.5424619 C19.2121613,22.4514096 18.3346827,22.3848713 18.3275777,22.3953773 C18.2636319,22.4584136 18.5194151,22.829627 19.4608394,24.0378217 L20.5266028,25.4001051 L21.0204065,24.6576782 C21.2939524,24.2479426 21.6989425,23.6385922 21.9192003,23.3094029 Z M21.7167052,21.789529 C21.3756609,21.4393276 20.8925149,20.9455437 20.6367317,20.6863947 L20.1749009,20.2171248 L19.1837409,21.1346524 C18.3311302,21.9261075 18.2032386,22.059184 18.277842,22.0696901 C18.3382353,22.0766941 21.7842036,22.3813693 22.2851124,22.4198914 C22.3099802,22.4233935 22.054197,22.1397303 21.7167052,21.789529 Z M22.6439194,21.7299947 C22.7966788,20.8369813 23.2514045,19.222553 23.809154,17.5906146 C23.9832287,17.0793206 24.1395406,16.6310629 24.1537508,16.5925407 C24.1715135,16.5505165 24.1146728,16.5855367 24.0080965,16.6835931 C23.9121778,16.7711434 23.0631196,17.5590965 22.1181428,18.4310979 L20.4022637,20.0175101 L20.7504131,20.3712134 C20.9422505,20.5638242 21.4289491,21.0611101 21.8268341,21.4708457 C22.2282716,21.8805813 22.5586583,22.2062686 22.5622108,22.1887585 C22.5657634,22.1747505 22.6048414,21.9681317 22.6439194,21.7299947 Z M19.0700595,20.8369813 L19.9759584,20 L18.2529742,18.2349851 C17.3044448,17.2649273 16.522885,16.4699702 16.5193325,16.4699702 C16.5122274,16.4699702 16.5548579,16.5995447 16.6081461,16.7606374 C16.998926,17.8952898 17.9687707,21.0681142 18.0788995,21.5759061 C18.0931097,21.6389424 18.1179775,21.6879706 18.1357403,21.6809666 C18.153503,21.6739625 18.5727032,21.2957451 19.0700595,20.8369813 Z M22.3170853,17.8357556 C23.4716623,16.7676414 24.409534,15.888636 24.4024289,15.8816319 C24.3953239,15.8746279 22.9636484,15.8501138 21.219349,15.8220977 C19.471497,15.7940816 17.6454891,15.7660655 17.162343,15.7555594 C16.5726206,15.7415514 16.2848645,15.7485554 16.2919696,15.7730695 C16.3097323,15.8220977 20.1713483,19.7933812 20.1962161,19.7863772 C20.2068738,19.7828752 21.1625083,18.9038697 22.3170853,17.8357556 Z M24.2212492,15.5314306 C24.2034865,15.5139205 23.4538995,15.0306426 22.5551058,14.4563124 C21.656312,13.8819821 20.782386,13.3181579 20.6118638,13.2060935 L20.2992399,13.0029767 L18.4483642,14.2181755 L16.5939359,15.4368762 L16.8923496,15.4473822 C17.3754957,15.4648923 22.5160278,15.5489406 23.4219266,15.5559447 C23.8802049,15.5559447 24.2425644,15.5454386 24.2212492,15.5314306 Z M24.6617647,15.2022413 C24.7043952,15.1006829 24.8429445,14.7434775 24.9708361,14.4072842 C25.0987277,14.0745929 25.3651685,13.4092103 25.5605585,12.9294344 C25.7523959,12.4496586 25.9122604,12.050429 25.9122604,12.043425 C25.9122604,12.0364209 25.7417383,12.0189109 25.5321381,12.0084048 C24.9459683,11.9733847 24.1608559,11.8858344 23.9405981,11.8263001 C23.5888962,11.7387498 23.606659,11.7632639 23.5960013,11.26948 L23.5853437,10.8282262 L22.0861699,11.8192961 C21.258427,12.3656102 20.5834435,12.81737 20.586996,12.827876 C20.586996,12.8488881 24.5338731,15.380844 24.565846,15.384346 C24.5800562,15.384346 24.6226867,15.3002977 24.6617647,15.2022413 Z M18.0788995,14.099107 C19.1269002,13.4127123 19.9759584,12.8383821 19.9724058,12.820872 C19.9581956,12.7858519 13.6844019,8.75853616 13.6701917,8.77604623 C13.6630866,8.78305025 13.698612,8.89161268 13.7483477,9.01418316 C14.2776768,10.2889161 15.5494878,13.6648573 16.0113186,15.0271406 C16.0717118,15.2022413 16.1356576,15.3493259 16.1498678,15.3493259 C16.1676305,15.3493259 17.0344514,14.7855017 18.0788995,14.099107 Z M22.0328817,11.5041149 L23.6031064,10.4710208 L23.6031064,10.2153738 C23.6031064,9.98424094 23.6173166,9.92820872 23.7523133,9.66205568 L23.9015202,9.36788653 L23.7487607,9.13675363 L23.5960013,8.90562073 L23.6706048,8.72351602 C23.7132353,8.62195763 23.7771811,8.48187708 23.8162591,8.41533882 L23.8802049,8.29276834 L23.770076,8.08614954 L23.6563946,7.88303274 L21.578156,7.90404483 C17.6490416,7.94606899 13.3540152,8.00210121 13.3433576,8.00910524 C13.339805,8.01610926 13.3575677,8.07214148 13.3824356,8.13517773 C13.4250661,8.23323411 13.9224223,8.56242339 16.8568242,10.4465067 C20.2423992,12.6212572 20.2814772,12.6457713 20.3702908,12.5897391 C20.4200264,12.561723 21.1660608,12.0714411 22.0328817,11.5041149 Z" id="Shape" fill-rule="nonzero"></path>
                    <path d="M38.9714144,12.4426545 C37.8452578,12.3901243 37.0033047,12.2500438 36.946464,12.1064612 C36.9358063,12.0749431 36.9251487,11.6897216 36.9251487,11.2484679 L36.9251487,10.4465067 L37.0885658,10.1278235 L37.2484303,9.80914026 L37.1063285,9.58501138 C37.02462,9.45893889 36.9606742,9.3328664 36.9606742,9.30485029 C36.9606742,9.27683418 37.0175149,9.14375766 37.0850132,9.01068114 C37.1525116,8.87760462 37.2093523,8.74803012 37.2057997,8.72351602 C37.2057997,8.69900193 37.1454065,8.57643145 37.070803,8.45035896 L36.9358063,8.22272807 L37.0565929,7.95657503 L37.1773794,7.69042199 L37.0565929,7.39975486 L36.9322538,7.10908773 L37.070803,6.80791455 L37.2057997,6.50674138 L37.070803,6.26160042 L36.9358063,6.01295745 L37.0565929,5.70127823 L37.1809319,5.38609701 L37.0530403,5.13045001 L36.9251487,4.87830503 L36.9251487,4.03431973 L36.9251487,3.19383646 L37.0814607,3.13080021 C37.4722406,2.96270355 38.498926,2.8716512 39.9625744,2.8716512 C41.4155651,2.8716512 42.4706709,2.96620557 42.8507931,3.1272982 L43,3.19383646 L43,4.04832779 L43,4.90281912 L42.8614508,5.19348625 L42.7264541,5.48065137 L42.8578982,5.75030643 L42.9928949,6.01645946 L42.8614508,6.26510243 L42.7300066,6.51724742 L42.8650033,6.81842059 L43,7.12309578 L42.8614508,7.39275083 C42.7264541,7.65540186 42.7264541,7.6659079 42.7797422,7.76746629 C42.8081626,7.82700053 42.8685558,7.95307302 42.9111864,8.04762739 L42.9928949,8.22272807 L42.8365829,8.48187708 L42.680271,8.7445281 L42.8401355,9.03869725 L43,9.32936438 L42.8578982,9.60252145 C42.7832948,9.75310804 42.7335592,9.88968657 42.7477693,9.90719664 C42.7619795,9.92470671 42.8259253,10.0542812 42.8863186,10.1943618 L43,10.4465067 L43,11.290492 L43,12.1309753 L42.8507931,12.1975136 C42.39962,12.3901243 40.4705882,12.5126948 38.9714144,12.4426545 Z" id="Path"></path>
                    <path d="M2.14573695,10.1663456 C1.95034699,10.1313255 1.80469266,10.0402732 1.74429941,9.91069865 C1.60575017,9.63053756 1.87219101,9.36088251 2.29139128,9.36088251 C2.61112029,9.36088251 2.85624587,9.53598319 2.85624587,9.76361408 C2.85624587,10.0367711 2.5080965,10.2328839 2.14573695,10.1663456 Z" id="Path"></path>
                    <path d="M3.95042961,5.68376817 C3.70175149,5.641744 3.42820555,5.48065137 3.30031395,5.30555069 C3.20794779,5.17247417 3.19373761,5.11994397 3.19373761,4.93083523 C3.19373761,4.74172649 3.20794779,4.68919629 3.30031395,4.55962178 C3.463731,4.33199089 3.7266193,4.2059184 4.06411104,4.18490632 C4.67870126,4.14988618 5.13697951,4.46856943 5.13697951,4.93083523 C5.13697951,5.41761513 4.56146728,5.78182455 3.95042961,5.68376817 Z" id="Path"></path>
                    <path d="M1.44233311,4.52460165 C1.31799405,4.51059359 1.15812954,4.47907547 1.08707865,4.45456137 C0.671430932,4.32148485 0.273545935,4.00280161 0.103023794,3.66310629 C0.0142101785,3.4880056 0,3.42146734 0,3.16231833 C0,2.90316932 0.0142101785,2.83663106 0.103023794,2.66153038 C0.159864508,2.54946594 0.291308658,2.37786727 0.404990086,2.27280686 C0.760244547,1.94011557 1.15812954,1.79303099 1.71943159,1.78952898 C2.42994052,1.78602697 3.05518837,2.1292243 3.32518176,2.66853441 C3.39268011,2.80161093 3.40689028,2.88916127 3.40689028,3.16231833 C3.40689028,3.57205393 3.33228685,3.75065663 3.03742564,4.03782175 C2.65375083,4.41253721 2.04271315,4.59814393 1.44233311,4.52460165 Z" id="Path"></path>
                </g>
            </g>
        </g>
    </g>
</svg>