<?xml version="1.0" encoding="UTF-8"?>
<svg width="25px" height="20px" viewBox="0 0 25 20" version="1.1" xmlns="http://www.w3.org/2000/svg" xmlns:xlink="http://www.w3.org/1999/xlink">
    <!-- Generator: Sketch 52.6 (67491) - http://www.bohemiancoding.com/sketch -->
    <title>9776145291579605663</title>
    <desc>Created with Sketch.</desc>
    <g id="Page-1" stroke="none" stroke-width="1" fill="none" fill-rule="evenodd">
        <g id="Desktop-View-Copy-6" transform="translate(-1366.000000, -1503.000000)" fill="#FFFFFF" fill-rule="nonzero">
            <g id="9776145291579605663" transform="translate(1366.000000, 1503.000000)">
                <path d="M24,9.05 L24,5.25 C24,4.91847939 23.8683039,4.600537 23.6338835,4.36611652 C23.399463,4.13169605 23.0815206,4 22.75,4 L22,4 L22,1.25 C22,0.559644063 21.4403559,0 20.75,0 L2.5,0 C1.11928813,0 1.69088438e-16,1.11928813 0,2.5 L0,17.5 C1.69088438e-16,18.8807119 1.11928813,20 2.5,20 L22.75,20 C23.0823383,20.0026911 23.4018467,19.8718594 23.6368531,19.6368531 C23.8718594,19.4018467 24.0026911,19.0823383 24,18.75 L24,15 C24.5771432,14.8901551 24.9960308,14.3874899 25,13.8 L25,10.3 C25.0204969,9.69375362 24.5959592,9.16308152 24,9.05 Z M3,3 C3,2.44771525 3.44771525,2 4,2 L21,2 L21,4 L4,4 C3.44771525,4 3,3.55228475 3,3 Z M24,13.75 C24,13.8880712 23.8880712,14 23.75,14 L19.11,14 C18.0959141,14.0354094 17.2042741,13.3339296 17,12.34 C16.8987823,11.7536455 17.0639042,11.1526696 17.4505053,10.7003464 C17.8371063,10.2480232 18.4050366,9.99132792 19,10 L23.75,10 C23.8880712,10 24,10.1119288 24,10.25 L24,13.75 Z M19,11 C18.4477153,11 18,11.4477153 18,12 C18,12.5522847 18.4477153,13 19,13 C19.5522847,13 20,12.5522847 20,12 C20,11.4477153 19.5522847,11 19,11 Z" id="Wallet"></path>
            </g>
        </g>
    </g>
</svg>